<svg xmlns="http://www.w3.org/2000/svg" xmlns:xlink="http://www.w3.org/1999/xlink" width="500" zoomAndPan="magnify" viewBox="0 0 375 374.999991" height="500" preserveAspectRatio="xMidYMid meet" version="1.0"><defs><g/><clipPath id="9d8f631753"><path d="M 114.542969 56.25 L 260.792969 56.25 L 260.792969 247.5 L 114.542969 247.5 Z M 114.542969 56.25 " clip-rule="nonzero"/></clipPath></defs><rect x="-37.5" width="450" fill="#ffffff" y="-37.499999" height="449.999989" fill-opacity="1"/><rect x="-37.5" width="450" fill="#000000" y="-37.499999" height="449.999989" fill-opacity="1"/><g clip-path="url(#9d8f631753)"><path fill="#fbb03b" d="M 184.96875 116.707031 L 173.316406 128.347656 L 240.03125 194.964844 L 187.324219 247.5 L 130.585938 190.84375 L 139.617188 181.824219 L 187.324219 229.464844 L 221.746094 195.089844 L 211.058594 184.421875 L 190.5 204.953125 L 190.363281 204.816406 L 190.238281 204.941406 L 114.632812 129.4375 L 123.664062 120.421875 L 190.378906 187.039062 L 202.03125 175.402344 L 135.3125 108.785156 L 188.023438 56.25 L 244.761719 112.910156 L 235.730469 121.929688 L 188.023438 74.285156 L 153.601562 108.65625 L 164.289062 119.328125 L 184.847656 98.796875 L 184.984375 98.933594 L 185.109375 98.808594 L 260.71875 174.308594 L 251.6875 183.328125 Z M 184.96875 116.707031 " fill-opacity="1" fill-rule="nonzero"/></g><g fill="#fbb03b" fill-opacity="1"><g transform="translate(88.342858, 283.721817)"><g><path d="M 8.265625 0.28125 C 7.347656 0.28125 6.453125 0.164062 5.578125 -0.0625 C 4.703125 -0.289062 3.910156 -0.644531 3.203125 -1.125 C 2.503906 -1.613281 1.9375 -2.242188 1.5 -3.015625 C 1.0625 -3.785156 0.816406 -4.707031 0.765625 -5.78125 C 0.765625 -6.15625 0.953125 -6.34375 1.328125 -6.34375 L 4.640625 -6.34375 C 4.992188 -6.34375 5.1875 -6.164062 5.21875 -5.8125 C 5.34375 -4.925781 5.722656 -4.265625 6.359375 -3.828125 C 7.003906 -3.390625 7.785156 -3.171875 8.703125 -3.171875 C 9.171875 -3.171875 9.613281 -3.234375 10.03125 -3.359375 C 10.457031 -3.492188 10.796875 -3.710938 11.046875 -4.015625 C 11.304688 -4.316406 11.4375 -4.734375 11.4375 -5.265625 C 11.4375 -5.734375 11.335938 -6.117188 11.140625 -6.421875 C 10.941406 -6.722656 10.664062 -6.96875 10.3125 -7.15625 C 9.96875 -7.351562 9.566406 -7.515625 9.109375 -7.640625 C 8.648438 -7.765625 8.164062 -7.882812 7.65625 -8 C 7.144531 -8.113281 6.625 -8.242188 6.09375 -8.390625 C 5.507812 -8.546875 4.941406 -8.738281 4.390625 -8.96875 C 3.835938 -9.195312 3.332031 -9.5 2.875 -9.875 C 2.414062 -10.257812 2.046875 -10.742188 1.765625 -11.328125 C 1.492188 -11.921875 1.359375 -12.660156 1.359375 -13.546875 C 1.359375 -14.585938 1.550781 -15.484375 1.9375 -16.234375 C 2.320312 -16.992188 2.84375 -17.617188 3.5 -18.109375 C 4.15625 -18.609375 4.890625 -18.972656 5.703125 -19.203125 C 6.515625 -19.429688 7.34375 -19.546875 8.1875 -19.546875 C 9 -19.546875 9.796875 -19.4375 10.578125 -19.21875 C 11.367188 -19.007812 12.09375 -18.679688 12.75 -18.234375 C 13.40625 -17.796875 13.945312 -17.222656 14.375 -16.515625 C 14.800781 -15.816406 15.050781 -14.976562 15.125 -14 C 15.15625 -13.601562 14.976562 -13.40625 14.59375 -13.40625 L 11.53125 -13.40625 C 11.1875 -13.40625 10.988281 -13.582031 10.9375 -13.9375 C 10.78125 -14.726562 10.445312 -15.285156 9.9375 -15.609375 C 9.425781 -15.929688 8.816406 -16.09375 8.109375 -16.09375 C 7.359375 -16.09375 6.753906 -15.925781 6.296875 -15.59375 C 5.835938 -15.269531 5.609375 -14.785156 5.609375 -14.140625 C 5.609375 -13.671875 5.722656 -13.296875 5.953125 -13.015625 C 6.179688 -12.742188 6.492188 -12.519531 6.890625 -12.34375 C 7.285156 -12.175781 7.738281 -12.035156 8.25 -11.921875 C 8.757812 -11.816406 9.285156 -11.707031 9.828125 -11.59375 C 10.390625 -11.46875 10.945312 -11.316406 11.5 -11.140625 C 12.0625 -10.972656 12.59375 -10.757812 13.09375 -10.5 C 13.601562 -10.238281 14.050781 -9.90625 14.4375 -9.5 C 14.832031 -9.09375 15.140625 -8.597656 15.359375 -8.015625 C 15.578125 -7.429688 15.6875 -6.722656 15.6875 -5.890625 C 15.6875 -4.941406 15.539062 -4.117188 15.25 -3.421875 C 14.957031 -2.734375 14.554688 -2.148438 14.046875 -1.671875 C 13.546875 -1.203125 12.972656 -0.820312 12.328125 -0.53125 C 11.691406 -0.238281 11.023438 -0.03125 10.328125 0.09375 C 9.628906 0.21875 8.941406 0.28125 8.265625 0.28125 Z M 8.265625 0.28125 "/></g></g></g><g fill="#fbb03b" fill-opacity="1"><g transform="translate(104.910978, 283.721817)"><g><path d="M 13.5625 -11.875 L 13.5625 -13.625 C 13.5625 -14.800781 13.742188 -15.816406 14.109375 -16.671875 C 14.484375 -17.535156 14.988281 -18.226562 15.625 -18.75 C 16.269531 -19.28125 17 -19.640625 17.8125 -19.828125 L 17.8125 -0.5625 C 17.8125 -0.1875 17.625 0 17.25 0 L 14.140625 0 C 13.753906 0 13.5625 -0.1875 13.5625 -0.5625 L 13.5625 -8.015625 L 10.90625 -8.015625 C 9.570312 -8.015625 8.472656 -8.265625 7.609375 -8.765625 C 6.742188 -9.273438 6.144531 -9.9375 5.8125 -10.75 L 5.8125 -5.640625 C 5.8125 -4.453125 5.628906 -3.425781 5.265625 -2.5625 C 4.898438 -1.707031 4.394531 -1.019531 3.75 -0.5 C 3.113281 0.0195312 2.382812 0.375 1.5625 0.5625 L 1.5625 -18.703125 C 1.5625 -19.078125 1.75 -19.265625 2.125 -19.265625 L 5.234375 -19.265625 C 5.617188 -19.265625 5.8125 -19.078125 5.8125 -18.703125 L 5.8125 -11.875 Z M 13.5625 -11.875 "/></g></g></g><g fill="#fbb03b" fill-opacity="1"><g transform="translate(124.311245, 283.721817)"><g><path d="M 14.015625 -3.515625 L 16.03125 -0.6875 C 16.101562 -0.582031 16.140625 -0.476562 16.140625 -0.375 C 16.140625 -0.125 15.984375 0 15.671875 0 L 11.640625 0 C 11.378906 0 11.15625 -0.125 10.96875 -0.375 L 5.984375 -7.453125 L 5.78125 -7.453125 L 5.78125 -5.359375 C 5.78125 -4.171875 5.597656 -3.148438 5.234375 -2.296875 C 4.867188 -1.453125 4.363281 -0.785156 3.71875 -0.296875 C 3.082031 0.179688 2.351562 0.46875 1.53125 0.5625 L 1.53125 -18.703125 C 1.53125 -19.078125 1.71875 -19.265625 2.09375 -19.265625 L 5.21875 -19.265625 C 5.28125 -19.265625 5.328125 -19.257812 5.359375 -19.25 L 5.359375 -19.265625 L 7.9375 -19.265625 C 9.601562 -19.265625 10.945312 -19.019531 11.96875 -18.53125 C 12.988281 -18.039062 13.726562 -17.34375 14.1875 -16.4375 C 14.644531 -15.53125 14.875 -14.460938 14.875 -13.234375 C 14.875 -12.109375 14.660156 -11.125 14.234375 -10.28125 C 13.816406 -9.4375 13.144531 -8.769531 12.21875 -8.28125 C 11.289062 -7.800781 10.070312 -7.53125 8.5625 -7.46875 C 9.5625 -7.21875 10.519531 -6.773438 11.4375 -6.140625 C 12.351562 -5.515625 13.210938 -4.640625 14.015625 -3.515625 Z M 10.625 -13.09375 C 10.625 -13.59375 10.546875 -14 10.390625 -14.3125 C 10.234375 -14.625 10.03125 -14.867188 9.78125 -15.046875 C 9.539062 -15.222656 9.273438 -15.347656 8.984375 -15.421875 C 8.703125 -15.492188 8.429688 -15.535156 8.171875 -15.546875 C 7.910156 -15.566406 7.6875 -15.578125 7.5 -15.578125 L 5.78125 -15.578125 L 5.78125 -10.515625 L 7.5 -10.515625 C 7.6875 -10.515625 7.910156 -10.519531 8.171875 -10.53125 C 8.429688 -10.550781 8.703125 -10.601562 8.984375 -10.6875 C 9.265625 -10.769531 9.53125 -10.898438 9.78125 -11.078125 C 10.03125 -11.253906 10.234375 -11.503906 10.390625 -11.828125 C 10.546875 -12.160156 10.625 -12.582031 10.625 -13.09375 Z M 10.625 -13.09375 "/></g></g></g><g fill="#fbb03b" fill-opacity="1"><g transform="translate(140.652786, 283.721817)"><g><path d="M 12.015625 -15.40625 L 5.671875 -15.40625 L 5.671875 -11.875 L 11.734375 -11.875 C 12.109375 -11.875 12.296875 -11.679688 12.296875 -11.296875 L 12.296875 -8.578125 C 12.296875 -8.203125 12.109375 -8.015625 11.734375 -8.015625 L 10.765625 -8.015625 C 9.429688 -8.015625 8.332031 -8.265625 7.46875 -8.765625 C 6.601562 -9.273438 6.003906 -9.9375 5.671875 -10.75 L 5.671875 -3.859375 L 12.015625 -3.859375 C 12.390625 -3.859375 12.578125 -3.664062 12.578125 -3.28125 L 12.578125 -0.5625 C 12.578125 -0.1875 12.390625 0 12.015625 0 L 1.984375 0 C 1.609375 0 1.421875 -0.1875 1.421875 -0.5625 L 1.421875 -9.765625 C 1.421875 -11.253906 1.703125 -12.476562 2.265625 -13.4375 C 2.835938 -14.394531 3.585938 -15.050781 4.515625 -15.40625 L 1.984375 -15.40625 C 1.609375 -15.40625 1.421875 -15.597656 1.421875 -15.984375 L 1.421875 -18.703125 C 1.421875 -19.078125 1.609375 -19.265625 1.984375 -19.265625 L 12.015625 -19.265625 C 12.390625 -19.265625 12.578125 -19.078125 12.578125 -18.703125 L 12.578125 -15.984375 C 12.578125 -15.597656 12.390625 -15.40625 12.015625 -15.40625 Z M 12.015625 -15.40625 "/></g></g></g><g fill="#fbb03b" fill-opacity="1"><g transform="translate(154.388747, 283.721817)"><g><path d="M 10.625 0 L 7.5 0 C 7.125 0 6.9375 -0.1875 6.9375 -0.5625 L 6.9375 -9.203125 L -0.453125 -19.828125 C 1.179688 -19.828125 2.679688 -19.46875 4.046875 -18.75 C 5.421875 -18.039062 6.535156 -16.984375 7.390625 -15.578125 L 9.0625 -12.890625 L 10.734375 -15.578125 C 11.609375 -16.984375 12.726562 -18.039062 14.09375 -18.75 C 15.457031 -19.46875 16.953125 -19.828125 18.578125 -19.828125 L 11.1875 -9.203125 L 11.1875 -0.5625 C 11.1875 -0.1875 11 0 10.625 0 Z M 10.625 0 "/></g></g></g><g fill="#fbb03b" fill-opacity="1"><g transform="translate(172.514549, 283.721817)"><g><path d="M 11.078125 -18.8125 L 17.90625 -0.65625 C 17.925781 -0.613281 17.9375 -0.570312 17.9375 -0.53125 C 17.945312 -0.488281 17.953125 -0.453125 17.953125 -0.421875 C 17.953125 -0.296875 17.90625 -0.191406 17.8125 -0.109375 C 17.726562 -0.0351562 17.609375 0 17.453125 0 L 14.078125 0 C 13.929688 0 13.804688 -0.03125 13.703125 -0.09375 C 13.597656 -0.164062 13.515625 -0.285156 13.453125 -0.453125 L 12.34375 -3.875 L 11.296875 -3.875 C 10.160156 -3.875 9.21875 -4.09375 8.46875 -4.53125 C 7.71875 -4.976562 7.1875 -5.5625 6.875 -6.28125 C 6.414062 -4.8125 5.84375 -3.609375 5.15625 -2.671875 C 4.476562 -1.734375 3.6875 -1.003906 2.78125 -0.484375 C 1.882812 0.0234375 0.898438 0.375 -0.171875 0.5625 L 7.140625 -18.8125 C 7.265625 -19.113281 7.484375 -19.265625 7.796875 -19.265625 L 10.421875 -19.265625 C 10.734375 -19.265625 10.953125 -19.113281 11.078125 -18.8125 Z M 9.125 -13.65625 L 7.203125 -7.359375 L 11.1875 -7.359375 Z M 9.125 -13.65625 "/></g></g></g><g fill="#fbb03b" fill-opacity="1"><g transform="translate(190.583713, 283.721817)"><g><path d="M 8.265625 0.28125 C 7.347656 0.28125 6.453125 0.164062 5.578125 -0.0625 C 4.703125 -0.289062 3.910156 -0.644531 3.203125 -1.125 C 2.503906 -1.613281 1.9375 -2.242188 1.5 -3.015625 C 1.0625 -3.785156 0.816406 -4.707031 0.765625 -5.78125 C 0.765625 -6.15625 0.953125 -6.34375 1.328125 -6.34375 L 4.640625 -6.34375 C 4.992188 -6.34375 5.1875 -6.164062 5.21875 -5.8125 C 5.34375 -4.925781 5.722656 -4.265625 6.359375 -3.828125 C 7.003906 -3.390625 7.785156 -3.171875 8.703125 -3.171875 C 9.171875 -3.171875 9.613281 -3.234375 10.03125 -3.359375 C 10.457031 -3.492188 10.796875 -3.710938 11.046875 -4.015625 C 11.304688 -4.316406 11.4375 -4.734375 11.4375 -5.265625 C 11.4375 -5.734375 11.335938 -6.117188 11.140625 -6.421875 C 10.941406 -6.722656 10.664062 -6.96875 10.3125 -7.15625 C 9.96875 -7.351562 9.566406 -7.515625 9.109375 -7.640625 C 8.648438 -7.765625 8.164062 -7.882812 7.65625 -8 C 7.144531 -8.113281 6.625 -8.242188 6.09375 -8.390625 C 5.507812 -8.546875 4.941406 -8.738281 4.390625 -8.96875 C 3.835938 -9.195312 3.332031 -9.5 2.875 -9.875 C 2.414062 -10.257812 2.046875 -10.742188 1.765625 -11.328125 C 1.492188 -11.921875 1.359375 -12.660156 1.359375 -13.546875 C 1.359375 -14.585938 1.550781 -15.484375 1.9375 -16.234375 C 2.320312 -16.992188 2.84375 -17.617188 3.5 -18.109375 C 4.15625 -18.609375 4.890625 -18.972656 5.703125 -19.203125 C 6.515625 -19.429688 7.34375 -19.546875 8.1875 -19.546875 C 9 -19.546875 9.796875 -19.4375 10.578125 -19.21875 C 11.367188 -19.007812 12.09375 -18.679688 12.75 -18.234375 C 13.40625 -17.796875 13.945312 -17.222656 14.375 -16.515625 C 14.800781 -15.816406 15.050781 -14.976562 15.125 -14 C 15.15625 -13.601562 14.976562 -13.40625 14.59375 -13.40625 L 11.53125 -13.40625 C 11.1875 -13.40625 10.988281 -13.582031 10.9375 -13.9375 C 10.78125 -14.726562 10.445312 -15.285156 9.9375 -15.609375 C 9.425781 -15.929688 8.816406 -16.09375 8.109375 -16.09375 C 7.359375 -16.09375 6.753906 -15.925781 6.296875 -15.59375 C 5.835938 -15.269531 5.609375 -14.785156 5.609375 -14.140625 C 5.609375 -13.671875 5.722656 -13.296875 5.953125 -13.015625 C 6.179688 -12.742188 6.492188 -12.519531 6.890625 -12.34375 C 7.285156 -12.175781 7.738281 -12.035156 8.25 -11.921875 C 8.757812 -11.816406 9.285156 -11.707031 9.828125 -11.59375 C 10.390625 -11.46875 10.945312 -11.316406 11.5 -11.140625 C 12.0625 -10.972656 12.59375 -10.757812 13.09375 -10.5 C 13.601562 -10.238281 14.050781 -9.90625 14.4375 -9.5 C 14.832031 -9.09375 15.140625 -8.597656 15.359375 -8.015625 C 15.578125 -7.429688 15.6875 -6.722656 15.6875 -5.890625 C 15.6875 -4.941406 15.539062 -4.117188 15.25 -3.421875 C 14.957031 -2.734375 14.554688 -2.148438 14.046875 -1.671875 C 13.546875 -1.203125 12.972656 -0.820312 12.328125 -0.53125 C 11.691406 -0.238281 11.023438 -0.03125 10.328125 0.09375 C 9.628906 0.21875 8.941406 0.28125 8.265625 0.28125 Z M 8.265625 0.28125 "/></g></g></g><g fill="#fbb03b" fill-opacity="1"><g transform="translate(207.151833, 283.721817)"><g/></g></g><g fill="#fbb03b" fill-opacity="1"><g transform="translate(214.515444, 283.721817)"><g><path d="M 8.265625 0.28125 C 7.347656 0.28125 6.453125 0.164062 5.578125 -0.0625 C 4.703125 -0.289062 3.910156 -0.644531 3.203125 -1.125 C 2.503906 -1.613281 1.9375 -2.242188 1.5 -3.015625 C 1.0625 -3.785156 0.816406 -4.707031 0.765625 -5.78125 C 0.765625 -6.15625 0.953125 -6.34375 1.328125 -6.34375 L 4.640625 -6.34375 C 4.992188 -6.34375 5.1875 -6.164062 5.21875 -5.8125 C 5.34375 -4.925781 5.722656 -4.265625 6.359375 -3.828125 C 7.003906 -3.390625 7.785156 -3.171875 8.703125 -3.171875 C 9.171875 -3.171875 9.613281 -3.234375 10.03125 -3.359375 C 10.457031 -3.492188 10.796875 -3.710938 11.046875 -4.015625 C 11.304688 -4.316406 11.4375 -4.734375 11.4375 -5.265625 C 11.4375 -5.734375 11.335938 -6.117188 11.140625 -6.421875 C 10.941406 -6.722656 10.664062 -6.96875 10.3125 -7.15625 C 9.96875 -7.351562 9.566406 -7.515625 9.109375 -7.640625 C 8.648438 -7.765625 8.164062 -7.882812 7.65625 -8 C 7.144531 -8.113281 6.625 -8.242188 6.09375 -8.390625 C 5.507812 -8.546875 4.941406 -8.738281 4.390625 -8.96875 C 3.835938 -9.195312 3.332031 -9.5 2.875 -9.875 C 2.414062 -10.257812 2.046875 -10.742188 1.765625 -11.328125 C 1.492188 -11.921875 1.359375 -12.660156 1.359375 -13.546875 C 1.359375 -14.585938 1.550781 -15.484375 1.9375 -16.234375 C 2.320312 -16.992188 2.84375 -17.617188 3.5 -18.109375 C 4.15625 -18.609375 4.890625 -18.972656 5.703125 -19.203125 C 6.515625 -19.429688 7.34375 -19.546875 8.1875 -19.546875 C 9 -19.546875 9.796875 -19.4375 10.578125 -19.21875 C 11.367188 -19.007812 12.09375 -18.679688 12.75 -18.234375 C 13.40625 -17.796875 13.945312 -17.222656 14.375 -16.515625 C 14.800781 -15.816406 15.050781 -14.976562 15.125 -14 C 15.15625 -13.601562 14.976562 -13.40625 14.59375 -13.40625 L 11.53125 -13.40625 C 11.1875 -13.40625 10.988281 -13.582031 10.9375 -13.9375 C 10.78125 -14.726562 10.445312 -15.285156 9.9375 -15.609375 C 9.425781 -15.929688 8.816406 -16.09375 8.109375 -16.09375 C 7.359375 -16.09375 6.753906 -15.925781 6.296875 -15.59375 C 5.835938 -15.269531 5.609375 -14.785156 5.609375 -14.140625 C 5.609375 -13.671875 5.722656 -13.296875 5.953125 -13.015625 C 6.179688 -12.742188 6.492188 -12.519531 6.890625 -12.34375 C 7.285156 -12.175781 7.738281 -12.035156 8.25 -11.921875 C 8.757812 -11.816406 9.285156 -11.707031 9.828125 -11.59375 C 10.390625 -11.46875 10.945312 -11.316406 11.5 -11.140625 C 12.0625 -10.972656 12.59375 -10.757812 13.09375 -10.5 C 13.601562 -10.238281 14.050781 -9.90625 14.4375 -9.5 C 14.832031 -9.09375 15.140625 -8.597656 15.359375 -8.015625 C 15.578125 -7.429688 15.6875 -6.722656 15.6875 -5.890625 C 15.6875 -4.941406 15.539062 -4.117188 15.25 -3.421875 C 14.957031 -2.734375 14.554688 -2.148438 14.046875 -1.671875 C 13.546875 -1.203125 12.972656 -0.820312 12.328125 -0.53125 C 11.691406 -0.238281 11.023438 -0.03125 10.328125 0.09375 C 9.628906 0.21875 8.941406 0.28125 8.265625 0.28125 Z M 8.265625 0.28125 "/></g></g></g><g fill="#fbb03b" fill-opacity="1"><g transform="translate(231.083564, 283.721817)"><g><path d="M 11.078125 -18.8125 L 17.90625 -0.65625 C 17.925781 -0.613281 17.9375 -0.570312 17.9375 -0.53125 C 17.945312 -0.488281 17.953125 -0.453125 17.953125 -0.421875 C 17.953125 -0.296875 17.90625 -0.191406 17.8125 -0.109375 C 17.726562 -0.0351562 17.609375 0 17.453125 0 L 14.078125 0 C 13.929688 0 13.804688 -0.03125 13.703125 -0.09375 C 13.597656 -0.164062 13.515625 -0.285156 13.453125 -0.453125 L 12.34375 -3.875 L 11.296875 -3.875 C 10.160156 -3.875 9.21875 -4.09375 8.46875 -4.53125 C 7.71875 -4.976562 7.1875 -5.5625 6.875 -6.28125 C 6.414062 -4.8125 5.84375 -3.609375 5.15625 -2.671875 C 4.476562 -1.734375 3.6875 -1.003906 2.78125 -0.484375 C 1.882812 0.0234375 0.898438 0.375 -0.171875 0.5625 L 7.140625 -18.8125 C 7.265625 -19.113281 7.484375 -19.265625 7.796875 -19.265625 L 10.421875 -19.265625 C 10.734375 -19.265625 10.953125 -19.113281 11.078125 -18.8125 Z M 9.125 -13.65625 L 7.203125 -7.359375 L 11.1875 -7.359375 Z M 9.125 -13.65625 "/></g></g></g><g fill="#fbb03b" fill-opacity="1"><g transform="translate(249.152728, 283.721817)"><g><path d="M 13.5625 -11.875 L 13.5625 -13.625 C 13.5625 -14.800781 13.742188 -15.816406 14.109375 -16.671875 C 14.484375 -17.535156 14.988281 -18.226562 15.625 -18.75 C 16.269531 -19.28125 17 -19.640625 17.8125 -19.828125 L 17.8125 -0.5625 C 17.8125 -0.1875 17.625 0 17.25 0 L 14.140625 0 C 13.753906 0 13.5625 -0.1875 13.5625 -0.5625 L 13.5625 -8.015625 L 10.90625 -8.015625 C 9.570312 -8.015625 8.472656 -8.265625 7.609375 -8.765625 C 6.742188 -9.273438 6.144531 -9.9375 5.8125 -10.75 L 5.8125 -5.640625 C 5.8125 -4.453125 5.628906 -3.425781 5.265625 -2.5625 C 4.898438 -1.707031 4.394531 -1.019531 3.75 -0.5 C 3.113281 0.0195312 2.382812 0.375 1.5625 0.5625 L 1.5625 -18.703125 C 1.5625 -19.078125 1.75 -19.265625 2.125 -19.265625 L 5.234375 -19.265625 C 5.617188 -19.265625 5.8125 -19.078125 5.8125 -18.703125 L 5.8125 -11.875 Z M 13.5625 -11.875 "/></g></g></g><g fill="#fbb03b" fill-opacity="1"><g transform="translate(268.552995, 283.721817)"><g><path d="M 11.078125 -18.8125 L 17.90625 -0.65625 C 17.925781 -0.613281 17.9375 -0.570312 17.9375 -0.53125 C 17.945312 -0.488281 17.953125 -0.453125 17.953125 -0.421875 C 17.953125 -0.296875 17.90625 -0.191406 17.8125 -0.109375 C 17.726562 -0.0351562 17.609375 0 17.453125 0 L 14.078125 0 C 13.929688 0 13.804688 -0.03125 13.703125 -0.09375 C 13.597656 -0.164062 13.515625 -0.285156 13.453125 -0.453125 L 12.34375 -3.875 L 11.296875 -3.875 C 10.160156 -3.875 9.21875 -4.09375 8.46875 -4.53125 C 7.71875 -4.976562 7.1875 -5.5625 6.875 -6.28125 C 6.414062 -4.8125 5.84375 -3.609375 5.15625 -2.671875 C 4.476562 -1.734375 3.6875 -1.003906 2.78125 -0.484375 C 1.882812 0.0234375 0.898438 0.375 -0.171875 0.5625 L 7.140625 -18.8125 C 7.265625 -19.113281 7.484375 -19.265625 7.796875 -19.265625 L 10.421875 -19.265625 C 10.734375 -19.265625 10.953125 -19.113281 11.078125 -18.8125 Z M 9.125 -13.65625 L 7.203125 -7.359375 L 11.1875 -7.359375 Z M 9.125 -13.65625 "/></g></g></g></svg>